<svg width="24" height="24" viewBox="0 0 24 24" fill="none" xmlns="http://www.w3.org/2000/svg">
<path d="M11.293 4.29297C11.6835 3.90244 12.3165 3.90244 12.707 4.29297C13.0973 4.68351 13.0975 5.31658 12.707 5.70703L7.41406 11H18L18.1025 11.0049C18.6067 11.0562 19 11.4823 19 12C19 12.5177 18.6067 12.9438 18.1025 12.9951L18 13H7.41406L12.707 18.293C13.0973 18.6835 13.0975 19.3166 12.707 19.707C12.3166 20.0975 11.6835 20.0973 11.293 19.707L4.29297 12.707C3.90244 12.3165 3.90244 11.6835 4.29297 11.293L11.293 4.29297Z" fill="#181A1C"/>
</svg>
